# 3ds Max Wavefront OBJ Exporter v0.97b - (c)2007 guruware
# File Created: 26.09.2018 14:50:01

mtllib anillo.mtl

#
# object Sphere001
#

v  0.0001 1.0236 -22.6937
v  0.0001 -1.0147 -22.6937
v  -2.0342 -1.0147 -22.6024
v  -2.0342 1.0236 -22.6024
v  -4.0521 -1.0147 -22.3290
v  -4.0521 1.0236 -22.3290
v  -6.0373 -1.0147 -21.8759
v  -6.0373 1.0236 -21.8759
v  -7.9740 -1.0147 -21.2467
v  -7.9740 1.0236 -21.2467
v  -9.8464 -1.0147 -20.4463
v  -9.8464 1.0236 -20.4463
v  -11.6395 -1.0147 -19.4814
v  -11.6395 1.0236 -19.4814
v  -13.3390 -1.0147 -18.3596
v  -13.3390 1.0236 -18.3596
v  -14.9310 -1.0147 -17.0900
v  -14.9310 1.0236 -17.0900
v  -16.4029 -1.0147 -15.6828
v  -16.4029 1.0236 -15.6828
v  -17.7426 -1.0147 -14.1493
v  -17.7426 1.0236 -14.1493
v  -18.9395 -1.0147 -12.5019
v  -18.9395 1.0236 -12.5019
v  -19.9839 -1.0147 -10.7538
v  -19.9839 1.0236 -10.7538
v  -20.8675 -1.0147 -8.9192
v  -20.8675 1.0236 -8.9192
v  -21.5830 -1.0147 -7.0127
v  -21.5830 1.0236 -7.0127
v  -22.1247 -1.0147 -5.0498
v  -22.1247 1.0236 -5.0498
v  -22.4883 -1.0147 -3.0462
v  -22.4883 1.0236 -3.0462
v  -22.6708 -1.0147 -1.0181
v  -22.6708 1.0236 -1.0181
v  -22.6708 -1.0147 1.0182
v  -22.6708 1.0236 1.0182
v  -22.4883 -1.0147 3.0463
v  -22.4883 1.0236 3.0463
v  -22.1247 -1.0147 5.0499
v  -22.1247 1.0236 5.0499
v  -21.5830 -1.0147 7.0128
v  -21.5830 1.0236 7.0128
v  -20.8675 -1.0147 8.9192
v  -20.8675 1.0236 8.9192
v  -19.9839 -1.0147 10.7539
v  -19.9839 1.0236 10.7539
v  -18.9395 -1.0147 12.5019
v  -18.9395 1.0236 12.5019
v  -17.7426 -1.0147 14.1493
v  -17.7426 1.0236 14.1493
v  -16.4028 -1.0147 15.6828
v  -16.4028 1.0236 15.6828
v  -14.9310 -1.0147 17.0900
v  -14.9310 1.0236 17.0900
v  -13.3390 -1.0147 18.3596
v  -13.3390 1.0236 18.3596
v  -11.6395 -1.0147 19.4814
v  -11.6395 1.0236 19.4814
v  -9.8464 -1.0147 20.4464
v  -9.8464 1.0236 20.4464
v  -7.9739 -1.0147 21.2467
v  -7.9739 1.0236 21.2467
v  -6.0373 -1.0147 21.8759
v  -6.0373 1.0236 21.8759
v  -4.0520 -1.0147 22.3290
v  -4.0520 1.0236 22.3290
v  -2.0342 -1.0147 22.6024
v  -2.0342 1.0236 22.6024
v  0.0001 -1.0147 22.6937
v  0.0001 1.0236 22.6937
v  2.0343 -1.0147 22.6024
v  2.0343 1.0236 22.6024
v  4.0522 -1.0147 22.3290
v  4.0522 1.0236 22.3290
v  6.0375 -1.0147 21.8759
v  6.0375 1.0236 21.8759
v  7.9741 -1.0147 21.2467
v  7.9741 1.0236 21.2467
v  9.8465 -1.0147 20.4463
v  9.8465 1.0236 20.4463
v  11.6397 -1.0147 19.4814
v  11.6397 1.0236 19.4814
v  13.3391 -1.0147 18.3596
v  13.3391 1.0236 18.3596
v  14.9312 -1.0147 17.0900
v  14.9312 1.0236 17.0900
v  16.4030 -1.0147 15.6828
v  16.4030 1.0236 15.6828
v  17.7428 -1.0147 14.1493
v  17.7428 1.0236 14.1493
v  18.9397 -1.0147 12.5019
v  18.9397 1.0236 12.5019
v  19.9841 -1.0147 10.7538
v  19.9841 1.0236 10.7538
v  20.8676 -1.0147 8.9192
v  20.8676 1.0236 8.9192
v  21.5831 -1.0147 7.0127
v  21.5831 1.0236 7.0127
v  22.1248 -1.0147 5.0498
v  22.1248 1.0236 5.0498
v  22.4884 -1.0147 3.0462
v  22.4884 1.0236 3.0462
v  22.6710 -1.0147 1.0181
v  22.6710 1.0236 1.0181
v  22.6709 -1.0147 -1.0182
v  22.6709 1.0236 -1.0182
v  22.4884 -1.0147 -3.0463
v  22.4884 1.0236 -3.0463
v  22.1248 -1.0147 -5.0499
v  22.1248 1.0236 -5.0499
v  21.5831 -1.0147 -7.0128
v  21.5831 1.0236 -7.0128
v  20.8676 -1.0147 -8.9192
v  20.8676 1.0236 -8.9192
v  19.9840 -1.0147 -10.7539
v  19.9840 1.0236 -10.7539
v  18.9396 -1.0147 -12.5019
v  18.9396 1.0236 -12.5019
v  17.7427 -1.0147 -14.1493
v  17.7427 1.0236 -14.1493
v  16.4029 -1.0147 -15.6828
v  16.4029 1.0236 -15.6828
v  14.9311 -1.0147 -17.0900
v  14.9311 1.0236 -17.0900
v  13.3391 -1.0147 -18.3596
v  13.3391 1.0236 -18.3596
v  11.6396 -1.0147 -19.4814
v  11.6396 1.0236 -19.4814
v  9.8465 -1.0147 -20.4464
v  9.8465 1.0236 -20.4464
v  7.9740 -1.0147 -21.2467
v  7.9740 1.0236 -21.2467
v  6.0374 -1.0147 -21.8759
v  6.0374 1.0236 -21.8759
v  4.0521 -1.0147 -22.3290
v  4.0521 1.0236 -22.3290
v  2.0343 -1.0147 -22.6024
v  2.0343 1.0236 -22.6024
# 140 vertices

vn -0.0000 0.0000 -1.0000
vn -0.0896 0.0000 -0.9960
vn -0.1786 0.0000 -0.9839
vn -0.2660 0.0000 -0.9640
vn -0.3514 0.0000 -0.9362
vn -0.4339 0.0000 -0.9010
vn -0.5129 0.0000 -0.8584
vn -0.5878 0.0000 -0.8090
vn -0.6579 0.0000 -0.7531
vn -0.7228 0.0000 -0.6911
vn -0.7818 0.0000 -0.6235
vn -0.8346 0.0000 -0.5509
vn -0.8806 0.0000 -0.4739
vn -0.9195 0.0000 -0.3930
vn -0.9511 0.0000 -0.3090
vn -0.9749 0.0000 -0.2225
vn -0.9909 0.0000 -0.1342
vn -0.9990 0.0000 -0.0449
vn -0.9990 0.0000 0.0449
vn -0.9909 0.0000 0.1342
vn -0.9749 0.0000 0.2225
vn -0.9511 0.0000 0.3090
vn -0.9195 0.0000 0.3930
vn -0.8806 0.0000 0.4739
vn -0.8346 0.0000 0.5509
vn -0.7818 0.0000 0.6235
vn -0.7228 0.0000 0.6911
vn -0.6579 0.0000 0.7531
vn -0.5878 0.0000 0.8090
vn -0.5129 0.0000 0.8584
vn -0.4339 0.0000 0.9010
vn -0.3514 0.0000 0.9362
vn -0.2660 0.0000 0.9640
vn -0.1786 0.0000 0.9839
vn -0.0896 0.0000 0.9960
vn 0.0000 0.0000 1.0000
vn 0.0896 0.0000 0.9960
vn 0.1786 0.0000 0.9839
vn 0.2660 0.0000 0.9640
vn 0.3514 0.0000 0.9362
vn 0.4339 0.0000 0.9010
vn 0.5129 0.0000 0.8584
vn 0.5878 0.0000 0.8090
vn 0.6579 0.0000 0.7531
vn 0.7228 0.0000 0.6911
vn 0.7818 0.0000 0.6235
vn 0.8346 0.0000 0.5509
vn 0.8806 0.0000 0.4739
vn 0.9195 0.0000 0.3930
vn 0.9511 0.0000 0.3090
vn 0.9749 0.0000 0.2225
vn 0.9909 0.0000 0.1342
vn 0.9990 0.0000 0.0449
vn 0.9990 0.0000 -0.0449
vn 0.9909 0.0000 -0.1342
vn 0.9749 0.0000 -0.2225
vn 0.9511 0.0000 -0.3090
vn 0.9195 0.0000 -0.3930
vn 0.8806 0.0000 -0.4739
vn 0.8346 0.0000 -0.5509
vn 0.7818 0.0000 -0.6235
vn 0.7228 0.0000 -0.6911
vn 0.6579 0.0000 -0.7531
vn 0.5878 0.0000 -0.8090
vn 0.5129 0.0000 -0.8584
vn 0.4339 0.0000 -0.9010
vn 0.3514 0.0000 -0.9362
vn 0.2660 0.0000 -0.9640
vn 0.1786 0.0000 -0.9839
vn 0.0896 0.0000 -0.9960
# 70 vertex normals

vt 0.0000 0.5143 0.0000
vt 0.0000 0.4857 0.0000
vt 0.0143 0.4857 0.0000
vt 0.0143 0.5143 0.0000
vt 0.0286 0.4857 0.0000
vt 0.0286 0.5143 0.0000
vt 0.0429 0.4857 0.0000
vt 0.0429 0.5143 0.0000
vt 0.0571 0.4857 0.0000
vt 0.0571 0.5143 0.0000
vt 0.0714 0.4857 0.0000
vt 0.0714 0.5143 0.0000
vt 0.0857 0.4857 0.0000
vt 0.0857 0.5143 0.0000
vt 0.1000 0.4857 0.0000
vt 0.1000 0.5143 0.0000
vt 0.1143 0.4857 0.0000
vt 0.1143 0.5143 0.0000
vt 0.1286 0.4857 0.0000
vt 0.1286 0.5143 0.0000
vt 0.1429 0.4857 0.0000
vt 0.1429 0.5143 0.0000
vt 0.1571 0.4857 0.0000
vt 0.1571 0.5143 0.0000
vt 0.1714 0.4857 0.0000
vt 0.1714 0.5143 0.0000
vt 0.1857 0.4857 0.0000
vt 0.1857 0.5143 0.0000
vt 0.2000 0.4857 0.0000
vt 0.2000 0.5143 0.0000
vt 0.2143 0.4857 0.0000
vt 0.2143 0.5143 0.0000
vt 0.2286 0.4857 0.0000
vt 0.2286 0.5143 0.0000
vt 0.2429 0.4857 0.0000
vt 0.2429 0.5143 0.0000
vt 0.2571 0.4857 0.0000
vt 0.2571 0.5143 0.0000
vt 0.2714 0.4857 0.0000
vt 0.2714 0.5143 0.0000
vt 0.2857 0.4857 0.0000
vt 0.2857 0.5143 0.0000
vt 0.3000 0.4857 0.0000
vt 0.3000 0.5143 0.0000
vt 0.3143 0.4857 0.0000
vt 0.3143 0.5143 0.0000
vt 0.3286 0.4857 0.0000
vt 0.3286 0.5143 0.0000
vt 0.3429 0.4857 0.0000
vt 0.3429 0.5143 0.0000
vt 0.3571 0.4857 0.0000
vt 0.3571 0.5143 0.0000
vt 0.3714 0.4857 0.0000
vt 0.3714 0.5143 0.0000
vt 0.3857 0.4857 0.0000
vt 0.3857 0.5143 0.0000
vt 0.4000 0.4857 0.0000
vt 0.4000 0.5143 0.0000
vt 0.4143 0.4857 0.0000
vt 0.4143 0.5143 0.0000
vt 0.4286 0.4857 0.0000
vt 0.4286 0.5143 0.0000
vt 0.4429 0.4857 0.0000
vt 0.4429 0.5143 0.0000
vt 0.4571 0.4857 0.0000
vt 0.4571 0.5143 0.0000
vt 0.4714 0.4857 0.0000
vt 0.4714 0.5143 0.0000
vt 0.4857 0.4857 0.0000
vt 0.4857 0.5143 0.0000
vt 0.5000 0.4857 0.0000
vt 0.5000 0.5143 0.0000
vt 0.5143 0.4857 0.0000
vt 0.5143 0.5143 0.0000
vt 0.5286 0.4857 0.0000
vt 0.5286 0.5143 0.0000
vt 0.5429 0.4857 0.0000
vt 0.5429 0.5143 0.0000
vt 0.5571 0.4857 0.0000
vt 0.5571 0.5143 0.0000
vt 0.5714 0.4857 0.0000
vt 0.5714 0.5143 0.0000
vt 0.5857 0.4857 0.0000
vt 0.5857 0.5143 0.0000
vt 0.6000 0.4857 0.0000
vt 0.6000 0.5143 0.0000
vt 0.6143 0.4857 0.0000
vt 0.6143 0.5143 0.0000
vt 0.6286 0.4857 0.0000
vt 0.6286 0.5143 0.0000
vt 0.6429 0.4857 0.0000
vt 0.6429 0.5143 0.0000
vt 0.6571 0.4857 0.0000
vt 0.6571 0.5143 0.0000
vt 0.6714 0.4857 0.0000
vt 0.6714 0.5143 0.0000
vt 0.6857 0.4857 0.0000
vt 0.6857 0.5143 0.0000
vt 0.7000 0.4857 0.0000
vt 0.7000 0.5143 0.0000
vt 0.7143 0.4857 0.0000
vt 0.7143 0.5143 0.0000
vt 0.7286 0.4857 0.0000
vt 0.7286 0.5143 0.0000
vt 0.7429 0.4857 0.0000
vt 0.7429 0.5143 0.0000
vt 0.7571 0.4857 0.0000
vt 0.7571 0.5143 0.0000
vt 0.7714 0.4857 0.0000
vt 0.7714 0.5143 0.0000
vt 0.7857 0.4857 0.0000
vt 0.7857 0.5143 0.0000
vt 0.8000 0.4857 0.0000
vt 0.8000 0.5143 0.0000
vt 0.8143 0.4857 0.0000
vt 0.8143 0.5143 0.0000
vt 0.8286 0.4857 0.0000
vt 0.8286 0.5143 0.0000
vt 0.8429 0.4857 0.0000
vt 0.8429 0.5143 0.0000
vt 0.8571 0.4857 0.0000
vt 0.8571 0.5143 0.0000
vt 0.8714 0.4857 0.0000
vt 0.8714 0.5143 0.0000
vt 0.8857 0.4857 0.0000
vt 0.8857 0.5143 0.0000
vt 0.9000 0.4857 0.0000
vt 0.9000 0.5143 0.0000
vt 0.9143 0.4857 0.0000
vt 0.9143 0.5143 0.0000
vt 0.9286 0.4857 0.0000
vt 0.9286 0.5143 0.0000
vt 0.9429 0.4857 0.0000
vt 0.9429 0.5143 0.0000
vt 0.9571 0.4857 0.0000
vt 0.9571 0.5143 0.0000
vt 0.9714 0.4857 0.0000
vt 0.9714 0.5143 0.0000
vt 0.9857 0.4857 0.0000
vt 0.9857 0.5143 0.0000
vt 1.0000 0.4857 0.0000
vt 1.0000 0.5143 0.0000
# 142 texture coords

o Sphere001
g Sphere001
usemtl wire_177028149
s 1
f 1/1/1 2/2/1 3/3/2 4/4/2 
f 4/4/2 3/3/2 5/5/3 6/6/3 
f 6/6/3 5/5/3 7/7/4 8/8/4 
f 8/8/4 7/7/4 9/9/5 10/10/5 
f 10/10/5 9/9/5 11/11/6 12/12/6 
f 12/12/6 11/11/6 13/13/7 14/14/7 
f 14/14/7 13/13/7 15/15/8 16/16/8 
f 16/16/8 15/15/8 17/17/9 18/18/9 
f 18/18/9 17/17/9 19/19/10 20/20/10 
f 20/20/10 19/19/10 21/21/11 22/22/11 
f 22/22/11 21/21/11 23/23/12 24/24/12 
f 24/24/12 23/23/12 25/25/13 26/26/13 
f 26/26/13 25/25/13 27/27/14 28/28/14 
f 28/28/14 27/27/14 29/29/15 30/30/15 
f 30/30/15 29/29/15 31/31/16 32/32/16 
f 32/32/16 31/31/16 33/33/17 34/34/17 
f 34/34/17 33/33/17 35/35/18 36/36/18 
f 36/36/18 35/35/18 37/37/19 38/38/19 
f 38/38/19 37/37/19 39/39/20 40/40/20 
f 40/40/20 39/39/20 41/41/21 42/42/21 
f 42/42/21 41/41/21 43/43/22 44/44/22 
f 44/44/22 43/43/22 45/45/23 46/46/23 
f 46/46/23 45/45/23 47/47/24 48/48/24 
f 48/48/24 47/47/24 49/49/25 50/50/25 
f 50/50/25 49/49/25 51/51/26 52/52/26 
f 52/52/26 51/51/26 53/53/27 54/54/27 
f 54/54/27 53/53/27 55/55/28 56/56/28 
f 56/56/28 55/55/28 57/57/29 58/58/29 
f 58/58/29 57/57/29 59/59/30 60/60/30 
f 60/60/30 59/59/30 61/61/31 62/62/31 
f 62/62/31 61/61/31 63/63/32 64/64/32 
f 64/64/32 63/63/32 65/65/33 66/66/33 
f 66/66/33 65/65/33 67/67/34 68/68/34 
f 68/68/34 67/67/34 69/69/35 70/70/35 
f 70/70/35 69/69/35 71/71/36 72/72/36 
f 72/72/36 71/71/36 73/73/37 74/74/37 
f 74/74/37 73/73/37 75/75/38 76/76/38 
f 76/76/38 75/75/38 77/77/39 78/78/39 
f 78/78/39 77/77/39 79/79/40 80/80/40 
f 80/80/40 79/79/40 81/81/41 82/82/41 
f 82/82/41 81/81/41 83/83/42 84/84/42 
f 84/84/42 83/83/42 85/85/43 86/86/43 
f 86/86/43 85/85/43 87/87/44 88/88/44 
f 88/88/44 87/87/44 89/89/45 90/90/45 
f 90/90/45 89/89/45 91/91/46 92/92/46 
f 92/92/46 91/91/46 93/93/47 94/94/47 
f 94/94/47 93/93/47 95/95/48 96/96/48 
f 96/96/48 95/95/48 97/97/49 98/98/49 
f 98/98/49 97/97/49 99/99/50 100/100/50 
f 100/100/50 99/99/50 101/101/51 102/102/51 
f 102/102/51 101/101/51 103/103/52 104/104/52 
f 104/104/52 103/103/52 105/105/53 106/106/53 
f 106/106/53 105/105/53 107/107/54 108/108/54 
f 108/108/54 107/107/54 109/109/55 110/110/55 
f 110/110/55 109/109/55 111/111/56 112/112/56 
f 112/112/56 111/111/56 113/113/57 114/114/57 
f 114/114/57 113/113/57 115/115/58 116/116/58 
f 116/116/58 115/115/58 117/117/59 118/118/59 
f 118/118/59 117/117/59 119/119/60 120/120/60 
f 120/120/60 119/119/60 121/121/61 122/122/61 
f 122/122/61 121/121/61 123/123/62 124/124/62 
f 124/124/62 123/123/62 125/125/63 126/126/63 
f 126/126/63 125/125/63 127/127/64 128/128/64 
f 128/128/64 127/127/64 129/129/65 130/130/65 
f 130/130/65 129/129/65 131/131/66 132/132/66 
f 132/132/66 131/131/66 133/133/67 134/134/67 
f 134/134/67 133/133/67 135/135/68 136/136/68 
f 136/136/68 135/135/68 137/137/69 138/138/69 
f 138/138/69 137/137/69 139/139/70 140/140/70 
f 140/140/70 139/139/70 2/141/1 1/142/1 
# 70 polygons

