# 3ds Max Wavefront OBJ Exporter v0.97b - (c)2007 guruware
# File Created: 29.09.2018 20:50:06

mtllib ZonaAura.mtl

#
# object Cylinder001
#

v  33.0852 0.0000 -0.0000
v  31.0899 0.0000 -11.3158
v  25.7158 8.7640 -9.3598
v  27.3662 8.7640 -0.0000
v  25.3447 0.0000 -21.2668
v  20.9637 8.7640 -17.5907
v  16.5426 0.0000 -28.6526
v  13.6831 8.7640 -23.6999
v  5.7452 0.0000 -32.5826
v  4.7521 8.7640 -26.9505
v  -5.7452 0.0000 -32.5826
v  -4.7521 8.7640 -26.9505
v  -16.5426 0.0000 -28.6526
v  -13.6831 8.7640 -23.6998
v  -25.3447 0.0000 -21.2668
v  -20.9637 8.7640 -17.5907
v  -31.0899 0.0000 -11.3158
v  -25.7158 8.7640 -9.3598
v  -33.0852 0.0000 -0.0000
v  -27.3662 8.7640 -0.0000
v  -31.0899 0.0000 11.3158
v  -25.7158 8.7640 9.3598
v  -25.3447 0.0000 21.2667
v  -20.9638 8.7640 17.5907
v  -16.5426 0.0000 28.6526
v  -13.6831 8.7640 23.6998
v  -5.7452 0.0000 32.5826
v  -4.7521 8.7640 26.9505
v  5.7452 0.0000 32.5826
v  4.7521 8.7640 26.9505
v  16.5426 0.0000 28.6526
v  13.6831 8.7640 23.6999
v  25.3447 0.0000 21.2668
v  20.9637 8.7640 17.5907
v  31.0899 0.0000 11.3158
v  25.7158 8.7640 9.3598
v  20.8994 38.8189 -7.6068
v  20.7241 46.7201 -7.5430
v  22.0541 46.7201 -0.0000
v  22.2407 38.8189 -0.0000
v  17.0374 38.8189 -14.2960
v  16.8944 46.7201 -14.1761
v  11.1203 38.8189 -19.2610
v  11.0271 46.7201 -19.0994
v  3.8621 38.8189 -21.9028
v  3.8297 46.7201 -21.7191
v  -3.8621 38.8189 -21.9028
v  -3.8297 46.7201 -21.7191
v  -11.1203 38.8189 -19.2610
v  -11.0271 46.7201 -19.0994
v  -17.0374 38.8189 -14.2960
v  -16.8944 46.7201 -14.1761
v  -20.8994 38.8189 -7.6068
v  -20.7241 46.7201 -7.5430
v  -22.2407 38.8189 -0.0000
v  -22.0541 46.7201 -0.0000
v  -20.8994 38.8189 7.6068
v  -20.7241 46.7201 7.5429
v  -17.0374 38.8189 14.2960
v  -16.8944 46.7201 14.1761
v  -11.1204 38.8189 19.2610
v  -11.0271 46.7201 19.0994
v  -3.8621 38.8189 21.9028
v  -3.8297 46.7201 21.7191
v  3.8620 38.8189 21.9028
v  3.8296 46.7201 21.7191
v  11.1203 38.8189 19.2610
v  11.0270 46.7201 19.0994
v  17.0374 38.8189 14.2961
v  16.8944 46.7201 14.1761
v  20.8994 38.8189 7.6068
v  20.7241 46.7201 7.5430
v  23.1814 16.2777 -8.4373
v  24.6691 16.2777 -0.0000
v  21.9735 23.7914 -7.9977
v  23.3837 23.7914 -0.0000
v  18.8976 16.2777 -15.8570
v  17.9130 23.7914 -15.0308
v  12.3345 16.2777 -21.3641
v  11.6919 23.7914 -20.2509
v  4.2837 16.2777 -24.2943
v  4.0605 23.7914 -23.0285
v  -4.2837 16.2777 -24.2943
v  -4.0605 23.7914 -23.0285
v  -12.3345 16.2777 -21.3641
v  -11.6919 23.7914 -20.2509
v  -18.8976 16.2777 -15.8570
v  -17.9130 23.7914 -15.0308
v  -23.1814 16.2777 -8.4373
v  -21.9735 23.7914 -7.9977
v  -24.6691 16.2777 -0.0000
v  -23.3837 23.7914 -0.0000
v  -23.1814 16.2777 8.4373
v  -21.9735 23.7914 7.9977
v  -18.8976 16.2777 15.8570
v  -17.9130 23.7914 15.0308
v  -12.3346 16.2777 21.3641
v  -11.6919 23.7914 20.2509
v  -4.2838 16.2777 24.2943
v  -4.0606 23.7914 23.0285
v  4.2837 16.2777 24.2943
v  4.0605 23.7914 23.0285
v  12.3345 16.2777 21.3641
v  11.6918 23.7914 20.2509
v  18.8976 16.2777 15.8570
v  17.9130 23.7914 15.0308
v  23.1814 16.2777 8.4373
v  21.9735 23.7914 7.9977
v  22.5054 31.3051 0.0000
v  21.1482 31.3051 -7.6973
v  17.2402 31.3051 -14.4662
v  11.2527 31.3051 -19.4903
v  3.9080 31.3051 -22.1635
v  -3.9080 31.3051 -22.1635
v  -11.2527 31.3051 -19.4903
v  -17.2402 31.3051 -14.4662
v  -21.1482 31.3051 -7.6973
v  -22.5054 31.3051 -0.0000
v  -21.1482 31.3051 7.6973
v  -17.2402 31.3051 14.4662
v  -11.2527 31.3051 19.4903
v  -3.9080 31.3051 22.1635
v  3.9080 31.3051 22.1635
v  11.2527 31.3051 19.4903
v  17.2402 31.3051 14.4662
v  21.1482 31.3051 7.6973
# 126 vertices

vn 0.8761 0.4822 0.0000
vn 0.8232 0.4822 -0.2996
vn 0.8644 0.3923 -0.3146
vn 0.9198 0.3923 0.0000
vn 0.6711 0.4822 -0.5631
vn 0.7046 0.3923 -0.5913
vn 0.4380 0.4822 -0.7587
vn 0.4599 0.3923 -0.7966
vn 0.1521 0.4822 -0.8628
vn 0.1597 0.3923 -0.9059
vn -0.1521 0.4822 -0.8628
vn -0.1597 0.3923 -0.9059
vn -0.4380 0.4822 -0.7587
vn -0.4599 0.3923 -0.7966
vn -0.6711 0.4822 -0.5631
vn -0.7046 0.3923 -0.5913
vn -0.8232 0.4822 -0.2996
vn -0.8644 0.3923 -0.3146
vn -0.8761 0.4822 -0.0000
vn -0.9198 0.3923 -0.0000
vn -0.8232 0.4822 0.2996
vn -0.8644 0.3923 0.3146
vn -0.6711 0.4822 0.5631
vn -0.7046 0.3923 0.5913
vn -0.4380 0.4822 0.7587
vn -0.4599 0.3923 0.7966
vn -0.1521 0.4822 0.8628
vn -0.1597 0.3923 0.9059
vn 0.1521 0.4822 0.8628
vn 0.1597 0.3923 0.9059
vn 0.4380 0.4822 0.7587
vn 0.4599 0.3923 0.7966
vn 0.6711 0.4822 0.5631
vn 0.7046 0.3923 0.5913
vn 0.8232 0.4822 0.2996
vn 0.8644 0.3923 0.3146
vn 0.9394 0.0248 -0.3419
vn 0.9395 0.0199 -0.3420
vn 0.9998 0.0199 0.0000
vn 0.9997 0.0248 0.0000
vn 0.7658 0.0248 -0.6426
vn 0.7659 0.0199 -0.6427
vn 0.4998 0.0248 -0.8658
vn 0.4999 0.0199 -0.8659
vn 0.1736 0.0248 -0.9845
vn 0.1736 0.0199 -0.9846
vn -0.1736 0.0248 -0.9845
vn -0.1736 0.0199 -0.9846
vn -0.4998 0.0248 -0.8658
vn -0.4999 0.0199 -0.8659
vn -0.7658 0.0248 -0.6426
vn -0.7659 0.0199 -0.6427
vn -0.9394 0.0248 -0.3419
vn -0.9395 0.0199 -0.3420
vn -0.9997 0.0248 -0.0000
vn -0.9998 0.0199 -0.0000
vn -0.9394 0.0248 0.3419
vn -0.9395 0.0199 0.3420
vn -0.7658 0.0248 0.6426
vn -0.7659 0.0199 0.6427
vn -0.4998 0.0248 0.8658
vn -0.4999 0.0199 0.8659
vn -0.1736 0.0248 0.9845
vn -0.1736 0.0199 0.9846
vn 0.1736 0.0248 0.9845
vn 0.1736 0.0199 0.9846
vn 0.4998 0.0248 0.8658
vn 0.4999 0.0199 0.8659
vn 0.7658 0.0248 0.6426
vn 0.7659 0.0199 0.6427
vn 0.9394 0.0248 0.3419
vn 0.9395 0.0199 0.3420
vn 0.9169 0.2187 -0.3337
vn 0.9758 0.2187 0.0000
vn 0.9328 0.1208 -0.3395
vn 0.9927 0.1208 0.0000
vn 0.7475 0.2187 -0.6272
vn 0.7604 0.1208 -0.6381
vn 0.4879 0.2187 -0.8451
vn 0.4963 0.1208 -0.8597
vn 0.1694 0.2187 -0.9610
vn 0.1724 0.1208 -0.9776
vn -0.1694 0.2187 -0.9610
vn -0.1724 0.1208 -0.9776
vn -0.4879 0.2187 -0.8451
vn -0.4963 0.1208 -0.8597
vn -0.7475 0.2187 -0.6272
vn -0.7604 0.1208 -0.6381
vn -0.9169 0.2187 -0.3337
vn -0.9328 0.1208 -0.3395
vn -0.9758 0.2187 -0.0000
vn -0.9927 0.1208 -0.0000
vn -0.9169 0.2187 0.3337
vn -0.9328 0.1208 0.3395
vn -0.7475 0.2187 0.6272
vn -0.7604 0.1208 0.6381
vn -0.4879 0.2187 0.8451
vn -0.4963 0.1208 0.8597
vn -0.1694 0.2187 0.9610
vn -0.1724 0.1208 0.9776
vn 0.1694 0.2187 0.9610
vn 0.1724 0.1208 0.9776
vn 0.4879 0.2187 0.8451
vn 0.4963 0.1208 0.8597
vn 0.7475 0.2187 0.6272
vn 0.7604 0.1208 0.6381
vn 0.9169 0.2187 0.3337
vn 0.9328 0.1208 0.3395
vn 0.9979 0.0642 0.0000
vn 0.9378 0.0642 -0.3413
vn 0.7645 0.0642 -0.6415
vn 0.4990 0.0642 -0.8642
vn 0.1733 0.0642 -0.9828
vn -0.1733 0.0642 -0.9828
vn -0.4990 0.0642 -0.8642
vn -0.7645 0.0642 -0.6415
vn -0.9378 0.0642 -0.3413
vn -0.9979 0.0642 -0.0000
vn -0.9378 0.0642 0.3413
vn -0.7645 0.0642 0.6415
vn -0.4990 0.0642 0.8642
vn -0.1733 0.0642 0.9828
vn 0.1733 0.0642 0.9828
vn 0.4990 0.0642 0.8642
vn 0.7645 0.0642 0.6415
vn 0.9378 0.0642 0.3413
# 126 vertex normals

vt 0.7789 0.0000 1.0000
vt 0.8344 0.0000 1.0000
vt 0.8344 0.1876 1.0000
vt 0.7789 0.1876 1.0000
vt 0.8900 0.0000 1.0000
vt 0.8900 0.1876 1.0000
vt 0.9455 0.0000 1.0000
vt 0.9455 0.1876 1.0000
vt 1.0011 0.0000 1.0000
vt 1.0011 0.1876 1.0000
vt 0.0011 0.0000 1.0000
vt 0.0566 0.0000 1.0000
vt 0.0566 0.1876 1.0000
vt 0.0011 0.1876 1.0000
vt 0.1122 0.0000 1.0000
vt 0.1122 0.1876 1.0000
vt 0.1677 0.0000 1.0000
vt 0.1677 0.1876 1.0000
vt 0.2233 0.0000 1.0000
vt 0.2233 0.1876 1.0000
vt 0.2789 0.0000 1.0000
vt 0.2789 0.1876 1.0000
vt 0.3344 0.0000 1.0000
vt 0.3344 0.1876 1.0000
vt 0.3900 0.0000 1.0000
vt 0.3900 0.1876 1.0000
vt 0.4455 0.0000 1.0000
vt 0.4455 0.1876 1.0000
vt 0.5011 0.0000 1.0000
vt 0.5011 0.1876 1.0000
vt 0.5566 0.0000 1.0000
vt 0.5566 0.1876 1.0000
vt 0.6122 0.0000 1.0000
vt 0.6122 0.1876 1.0000
vt 0.6677 0.0000 1.0000
vt 0.6677 0.1876 1.0000
vt 0.7233 0.0000 1.0000
vt 0.7233 0.1876 1.0000
vt 0.8344 0.8309 1.0000
vt 0.8344 1.0000 1.0000
vt 0.7789 1.0000 1.0000
vt 0.7789 0.8309 1.0000
vt 0.8900 0.8309 1.0000
vt 0.8900 1.0000 1.0000
vt 0.9455 0.8309 1.0000
vt 0.9455 1.0000 1.0000
vt 1.0011 0.8309 1.0000
vt 1.0011 1.0000 1.0000
vt 0.0566 0.8309 1.0000
vt 0.0566 1.0000 1.0000
vt 0.0011 1.0000 1.0000
vt 0.0011 0.8309 1.0000
vt 0.1122 0.8309 1.0000
vt 0.1122 1.0000 1.0000
vt 0.1677 0.8309 1.0000
vt 0.1677 1.0000 1.0000
vt 0.2233 0.8309 1.0000
vt 0.2233 1.0000 1.0000
vt 0.2789 0.8309 1.0000
vt 0.2789 1.0000 1.0000
vt 0.3344 0.8309 1.0000
vt 0.3344 1.0000 1.0000
vt 0.3900 0.8309 1.0000
vt 0.3900 1.0000 1.0000
vt 0.4455 0.8309 1.0000
vt 0.4455 1.0000 1.0000
vt 0.5011 0.8309 1.0000
vt 0.5011 1.0000 1.0000
vt 0.5566 0.8309 1.0000
vt 0.5566 1.0000 1.0000
vt 0.6122 0.8309 1.0000
vt 0.6122 1.0000 1.0000
vt 0.6677 0.8309 1.0000
vt 0.6677 1.0000 1.0000
vt 0.7233 0.8309 1.0000
vt 0.7233 1.0000 1.0000
vt 0.8344 0.3484 1.0000
vt 0.7789 0.3484 1.0000
vt 0.8344 0.5092 1.0000
vt 0.7789 0.5092 1.0000
vt 0.8900 0.3484 1.0000
vt 0.8900 0.5092 1.0000
vt 0.9455 0.3484 1.0000
vt 0.9455 0.5092 1.0000
vt 1.0011 0.3484 1.0000
vt 1.0011 0.5092 1.0000
vt 0.0566 0.3484 1.0000
vt 0.0011 0.3484 1.0000
vt 0.0566 0.5092 1.0000
vt 0.0011 0.5092 1.0000
vt 0.1122 0.3484 1.0000
vt 0.1122 0.5092 1.0000
vt 0.1677 0.3484 1.0000
vt 0.1677 0.5092 1.0000
vt 0.2233 0.3484 1.0000
vt 0.2233 0.5092 1.0000
vt 0.2789 0.3484 1.0000
vt 0.2789 0.5092 1.0000
vt 0.3344 0.3484 1.0000
vt 0.3344 0.5092 1.0000
vt 0.3900 0.3484 1.0000
vt 0.3900 0.5092 1.0000
vt 0.4455 0.3484 1.0000
vt 0.4455 0.5092 1.0000
vt 0.5011 0.3484 1.0000
vt 0.5011 0.5092 1.0000
vt 0.5566 0.3484 1.0000
vt 0.5566 0.5092 1.0000
vt 0.6122 0.3484 1.0000
vt 0.6122 0.5092 1.0000
vt 0.6677 0.3484 1.0000
vt 0.6677 0.5092 1.0000
vt 0.7233 0.3484 1.0000
vt 0.7233 0.5092 1.0000
vt 0.7789 0.6701 1.0000
vt 0.8344 0.6701 1.0000
vt 0.8900 0.6701 1.0000
vt 0.9455 0.6701 1.0000
vt 1.0011 0.6701 1.0000
vt 0.0011 0.6701 1.0000
vt 0.0566 0.6701 1.0000
vt 0.1122 0.6701 1.0000
vt 0.1677 0.6701 1.0000
vt 0.2233 0.6701 1.0000
vt 0.2789 0.6701 1.0000
vt 0.3344 0.6701 1.0000
vt 0.3900 0.6701 1.0000
vt 0.4455 0.6701 1.0000
vt 0.5011 0.6701 1.0000
vt 0.5566 0.6701 1.0000
vt 0.6122 0.6701 1.0000
vt 0.6677 0.6701 1.0000
vt 0.7233 0.6701 1.0000
# 133 texture coords

o Cylinder001
g Cylinder001
usemtl wire_153228184
s 1
f 1/1/1 2/2/2 3/3/3 4/4/4 
f 2/2/2 5/5/5 6/6/6 3/3/3 
f 5/5/5 7/7/7 8/8/8 6/6/6 
f 7/7/7 9/9/9 10/10/10 8/8/8 
f 9/11/9 11/12/11 12/13/12 10/14/10 
f 11/12/11 13/15/13 14/16/14 12/13/12 
f 13/15/13 15/17/15 16/18/16 14/16/14 
f 15/17/15 17/19/17 18/20/18 16/18/16 
f 17/19/17 19/21/19 20/22/20 18/20/18 
f 19/21/19 21/23/21 22/24/22 20/22/20 
f 21/23/21 23/25/23 24/26/24 22/24/22 
f 23/25/23 25/27/25 26/28/26 24/26/24 
f 25/27/25 27/29/27 28/30/28 26/28/26 
f 27/29/27 29/31/29 30/32/30 28/30/28 
f 29/31/29 31/33/31 32/34/32 30/32/30 
f 31/33/31 33/35/33 34/36/34 32/34/32 
f 33/35/33 35/37/35 36/38/36 34/36/34 
f 35/37/35 1/1/1 4/4/4 36/38/36 
f 37/39/37 38/40/38 39/41/39 40/42/40 
f 41/43/41 42/44/42 38/40/38 37/39/37 
f 43/45/43 44/46/44 42/44/42 41/43/41 
f 45/47/45 46/48/46 44/46/44 43/45/43 
f 47/49/47 48/50/48 46/51/46 45/52/45 
f 49/53/49 50/54/50 48/50/48 47/49/47 
f 51/55/51 52/56/52 50/54/50 49/53/49 
f 53/57/53 54/58/54 52/56/52 51/55/51 
f 55/59/55 56/60/56 54/58/54 53/57/53 
f 57/61/57 58/62/58 56/60/56 55/59/55 
f 59/63/59 60/64/60 58/62/58 57/61/57 
f 61/65/61 62/66/62 60/64/60 59/63/59 
f 63/67/63 64/68/64 62/66/62 61/65/61 
f 65/69/65 66/70/66 64/68/64 63/67/63 
f 67/71/67 68/72/68 66/70/66 65/69/65 
f 69/73/69 70/74/70 68/72/68 67/71/67 
f 71/75/71 72/76/72 70/74/70 69/73/69 
f 40/42/40 39/41/39 72/76/72 71/75/71 
f 4/4/4 3/3/3 73/77/73 74/78/74 
f 74/78/74 73/77/73 75/79/75 76/80/76 
f 3/3/3 6/6/6 77/81/77 73/77/73 
f 73/77/73 77/81/77 78/82/78 75/79/75 
f 6/6/6 8/8/8 79/83/79 77/81/77 
f 77/81/77 79/83/79 80/84/80 78/82/78 
f 8/8/8 10/10/10 81/85/81 79/83/79 
f 79/83/79 81/85/81 82/86/82 80/84/80 
f 10/14/10 12/13/12 83/87/83 81/88/81 
f 81/88/81 83/87/83 84/89/84 82/90/82 
f 12/13/12 14/16/14 85/91/85 83/87/83 
f 83/87/83 85/91/85 86/92/86 84/89/84 
f 14/16/14 16/18/16 87/93/87 85/91/85 
f 85/91/85 87/93/87 88/94/88 86/92/86 
f 16/18/16 18/20/18 89/95/89 87/93/87 
f 87/93/87 89/95/89 90/96/90 88/94/88 
f 18/20/18 20/22/20 91/97/91 89/95/89 
f 89/95/89 91/97/91 92/98/92 90/96/90 
f 20/22/20 22/24/22 93/99/93 91/97/91 
f 91/97/91 93/99/93 94/100/94 92/98/92 
f 22/24/22 24/26/24 95/101/95 93/99/93 
f 93/99/93 95/101/95 96/102/96 94/100/94 
f 24/26/24 26/28/26 97/103/97 95/101/95 
f 95/101/95 97/103/97 98/104/98 96/102/96 
f 26/28/26 28/30/28 99/105/99 97/103/97 
f 97/103/97 99/105/99 100/106/100 98/104/98 
f 28/30/28 30/32/30 101/107/101 99/105/99 
f 99/105/99 101/107/101 102/108/102 100/106/100 
f 30/32/30 32/34/32 103/109/103 101/107/101 
f 101/107/101 103/109/103 104/110/104 102/108/102 
f 32/34/32 34/36/34 105/111/105 103/109/103 
f 103/109/103 105/111/105 106/112/106 104/110/104 
f 34/36/34 36/38/36 107/113/107 105/111/105 
f 105/111/105 107/113/107 108/114/108 106/112/106 
f 36/38/36 4/4/4 74/78/74 107/113/107 
f 107/113/107 74/78/74 76/80/76 108/114/108 
f 37/39/37 40/42/40 109/115/109 110/116/110 
f 110/116/110 109/115/109 76/80/76 75/79/75 
f 41/43/41 37/39/37 110/116/110 111/117/111 
f 111/117/111 110/116/110 75/79/75 78/82/78 
f 43/45/43 41/43/41 111/117/111 112/118/112 
f 112/118/112 111/117/111 78/82/78 80/84/80 
f 45/47/45 43/45/43 112/118/112 113/119/113 
f 113/119/113 112/118/112 80/84/80 82/86/82 
f 47/49/47 45/52/45 113/120/113 114/121/114 
f 114/121/114 113/120/113 82/90/82 84/89/84 
f 49/53/49 47/49/47 114/121/114 115/122/115 
f 115/122/115 114/121/114 84/89/84 86/92/86 
f 51/55/51 49/53/49 115/122/115 116/123/116 
f 116/123/116 115/122/115 86/92/86 88/94/88 
f 53/57/53 51/55/51 116/123/116 117/124/117 
f 117/124/117 116/123/116 88/94/88 90/96/90 
f 55/59/55 53/57/53 117/124/117 118/125/118 
f 118/125/118 117/124/117 90/96/90 92/98/92 
f 57/61/57 55/59/55 118/125/118 119/126/119 
f 119/126/119 118/125/118 92/98/92 94/100/94 
f 59/63/59 57/61/57 119/126/119 120/127/120 
f 120/127/120 119/126/119 94/100/94 96/102/96 
f 61/65/61 59/63/59 120/127/120 121/128/121 
f 121/128/121 120/127/120 96/102/96 98/104/98 
f 63/67/63 61/65/61 121/128/121 122/129/122 
f 122/129/122 121/128/121 98/104/98 100/106/100 
f 65/69/65 63/67/63 122/129/122 123/130/123 
f 123/130/123 122/129/122 100/106/100 102/108/102 
f 67/71/67 65/69/65 123/130/123 124/131/124 
f 124/131/124 123/130/123 102/108/102 104/110/104 
f 69/73/69 67/71/67 124/131/124 125/132/125 
f 125/132/125 124/131/124 104/110/104 106/112/106 
f 71/75/71 69/73/69 125/132/125 126/133/126 
f 126/133/126 125/132/125 106/112/106 108/114/108 
f 40/42/40 71/75/71 126/133/126 109/115/109 
f 109/115/109 126/133/126 108/114/108 76/80/76 
# 108 polygons

